<svg xmlns="http://www.w3.org/2000/svg" viewBox="0 0 304 304"><defs><style>.cls-1{fill:#fff;}.cls-2{fill:#29abe2;}.cls-3{fill:#ffc298;}.cls-4{fill:#892e1d;}.cls-5{fill:#e1927a;}.cls-6{fill:#2652e4;}.cls-7{fill:#accdfc;}.cls-8{fill:#bdccd4;}</style></defs><title>Asset 11</title><g id="Layer_2" data-name="Layer 2"><g id="Layer_1-2" data-name="Layer 1"><path class="cls-1" d="M152,293.5C74,293.5,10.5,230,10.5,152S74,10.5,152,10.5,293.5,74,293.5,152,230,293.5,152,293.5Z"/><path class="cls-2" d="M152,21a131,131,0,0,1,92.63,223.63A131,131,0,0,1,59.37,59.37,130.14,130.14,0,0,1,152,21m0-21A152,152,0,1,0,304,152,152,152,0,0,0,152,0Z"/><path class="cls-1" d="M215,213.87"/><path class="cls-3" d="M132.46,168.91s5.66-13.59,2.83-24.91-5.1-18.69-5.1-18.69L150.58,84l10.19-5.1,32.84,10.76-3.4,7.93s1.42,17.27-2.26,32.84c-2.84,12-5.1,18.12-10.76,21.52s-9.06,4-9.06,4l1.13,14.72,4.53,24.91-31.14,13L126.24,185.9Z"/><path class="cls-4" d="M137.23,135.81a3.22,3.22,0,0,1-3.87.76c-5.22-2.61-17.7-11.74-15.9-38.72,2.26-34,43-40.2,56.06-33.41s16.42,11.32,16.42,11.32V63.88s7.93.57,7.93,6.23-1.7,6.79-1.7,6.79,2.26,2.83,6.79-1.7c.57.57,2.26,14.72-6.23,19.25s-32.28,3.4-38.5-3.4c0,0-2.83,17.55-5.66,22.08,0,0-5.34-6.52-9.63-1.7-3.88,4.37-5.68,12.89-.42,14.17a1.68,1.68,0,0,1,.95,2.7C141.55,130.64,138.93,133.87,137.23,135.81Z"/><path class="cls-5" d="M168.42,155.61s-12.46,1.13-19.82-5.66-7.36-6.23-7.36-6.23,11.32,20.38,27.18,15.85Z"/><path class="cls-6" d="M169,171.46s21.52,5.1,28.88,9.06,12.46,26.61,12.46,26.61l6.23,17.55H87.45s6.23-34,14.16-41.9,30.58-11.32,30.58-11.32,5.1,10.19,18.12,9.06S169,171.46,169,171.46Z"/><path class="cls-7" d="M189.65,120.66l-23.81,1.51-9.73,18.44,15.65,14.1s11.26-3.6,14.57-13.08C189.91,131.38,190.25,121.63,189.65,120.66Z"/><polygon class="cls-1" points="142.27 125.24 158.15 139.07 156.86 140.78 141.24 126.26 142.27 125.24"/><polygon class="cls-1" points="151.47 110.35 167.27 122.13 166.16 123.78 150.56 111.35 151.47 110.35"/><path class="cls-7" d="M190.42,132.92"/><circle class="cls-1" cx="180.18" cy="131.38" r="3.59"/><circle class="cls-8" cx="180.18" cy="131.38" r="2.56"/></g></g></svg>