<svg xmlns="http://www.w3.org/2000/svg" xmlns:xlink="http://www.w3.org/1999/xlink" viewBox="0 0 304 304"><defs><style>.cls-1{fill:#fff;}.cls-2{fill:#29abe2;}.cls-3{fill:#ffc298;}.cls-4{fill:#892e1d;}.cls-5{fill:#2652e4;}.cls-6{fill:#e1927a;}.cls-7{fill:url(#linear-gradient);}.cls-8{fill:url(#linear-gradient-2);}.cls-9{fill:url(#linear-gradient-3);}</style><linearGradient id="linear-gradient" x1="103.13" y1="139.08" x2="221.63" y2="177.08" gradientUnits="userSpaceOnUse"><stop offset="0.22" stop-color="#ff2a00"/><stop offset="0.39" stop-color="#ff3d29" stop-opacity="0.76"/><stop offset="0.69" stop-color="#ff5e6f" stop-opacity="0.36"/><stop offset="0.9" stop-color="#ff739b" stop-opacity="0.1"/><stop offset="1" stop-color="#ff7bac" stop-opacity="0"/></linearGradient><linearGradient id="linear-gradient-2" x1="148.4" y1="199.08" x2="80.98" y2="218.83" gradientUnits="userSpaceOnUse"><stop offset="0" stop-color="#ff2a00"/><stop offset="0.22" stop-color="#ff3d29" stop-opacity="0.76"/><stop offset="0.6" stop-color="#ff5e6f" stop-opacity="0.36"/><stop offset="0.87" stop-color="#ff739b" stop-opacity="0.1"/><stop offset="1" stop-color="#ff7bac" stop-opacity="0"/></linearGradient><linearGradient id="linear-gradient-3" x1="4457.4" y1="198.08" x2="4389.98" y2="217.83" gradientTransform="matrix(-1, 0, 0, 1, 4597.16, 0)" xlink:href="#linear-gradient-2"/></defs><title>Asset 6</title><g id="Layer_2" data-name="Layer 2"><g id="Layer_1-2" data-name="Layer 1"><path class="cls-1" d="M152,293.5C74,293.5,10.5,230,10.5,152S74,10.5,152,10.5,293.5,74,293.5,152,230,293.5,152,293.5Z"/><path class="cls-2" d="M152,21a131,131,0,0,1,92.63,223.63A131,131,0,0,1,59.37,59.37,130.14,130.14,0,0,1,152,21m0-21A152,152,0,1,0,304,152,152,152,0,0,0,152,0Z"/><path class="cls-1" d="M330,53"/><path class="cls-3" d="M127.5,165.17s5.94-14.26,3-26.14-5.35-19.6-5.35-19.6l21.39-43.37,10.69-5.35L191.66,82l-3.56,8.32s1.49,18.12-2.38,34.46c-3,12.63-5.35,19-11.29,22.57s-9.51,4.16-9.51,4.16L166.12,167l4.75,26.14L138.2,206.76,121,183Z"/><path class="cls-4" d="M132.51,130.44a3.38,3.38,0,0,1-4.06.8c-5.47-2.74-18.57-12.32-16.68-40.62,2.38-35.64,45.15-42.18,58.81-35.05S187.8,67.44,187.8,67.44V55s8.32.59,8.32,6.53-1.78,7.13-1.78,7.13,2.38,3,7.13-1.78c.59.59,2.38,15.45-6.53,20.2s-33.86,3.56-40.4-3.56c0,0-3,18.42-5.94,23.17,0,0-5.6-6.84-10.1-1.78-4.07,4.58-6,13.52-.44,14.87a1.77,1.77,0,0,1,1,2.84C137,125,134.28,128.4,132.51,130.44Z"/><path class="cls-5" d="M165.82,167.84s22.57,5.35,30.3,9.51,13.07,27.92,13.07,27.92l6.53,18.42H80.28s6.53-35.64,14.85-44,32.08-11.88,32.08-11.88,5.35,10.69,19,9.51S165.82,167.84,165.82,167.84Z"/><path class="cls-6" d="M165.23,151.21s-13.07,1.19-20.79-5.94-7.72-6.53-7.72-6.53,11.88,21.39,28.52,16.63Z"/><path class="cls-7" d="M134,199s6,3,8-13,4-39,7-43,21.7-25.7,26-30c3-3,5.76-6.24,8-4,2,2,3,10,2,8-1.41-2.83-4-4-6-3-7,3.49-16,18-18,20s-9,13-10,23-5,28-3,33a13.76,13.76,0,0,0,7,7v5s-1,2-4,0c-1.56-1-3-4-6-5-1-.34-3.25,3.62-4,4-2,3-7,4-7,4Z"/><path class="cls-5" d="M202,146"/><path class="cls-8" d="M115,195c-1.23,2.21-.38,7.87-3,11-3.06,3.66-9.19,5.19-12,8-3.41,3.4-3.12,9,1,9,5,0,10-.6,16-1,9.09-.6,18-.4,18-1,0-1,2-33-2-33S120,186,115,195Z"/><path class="cls-9" d="M173.16,194c1.23,2.21.38,7.87,3,11,3.06,3.66,9.19,5.19,12,8,3.41,3.4,3.12,9-1,9-5,0-10-.6-16-1-9.09-.6-18-.4-18-1,0-1-2-33,2-33S168.16,185,173.16,194Z"/></g></g></svg>