<svg xmlns="http://www.w3.org/2000/svg" viewBox="0 0 304 304"><defs><style>.cls-1,.cls-3{fill:#fff;}.cls-2{fill:#29abe2;}.cls-3,.cls-9{stroke:#29abe2;stroke-miterlimit:10;stroke-width:6px;}.cls-4{fill:#ffc298;}.cls-5{fill:#892e1d;}.cls-6{fill:#2652e4;}.cls-7{fill:#e1927a;}.cls-8{fill:#ccc;}.cls-9{fill:none;}.cls-10{fill:#e44450;}</style></defs><title>Asset 8</title><g id="Layer_2" data-name="Layer 2"><g id="Layer_1-2" data-name="Layer 1"><path class="cls-1" d="M152,293.5C74,293.5,10.5,230,10.5,152S74,10.5,152,10.5,293.5,74,293.5,152,230,293.5,152,293.5Z"/><path class="cls-2" d="M152,21a131,131,0,0,1,92.63,223.63A131,131,0,1,1,59.37,59.37,130.14,130.14,0,0,1,152,21m0-21A152,152,0,1,0,304,152,152,152,0,0,0,152,0Z"/><circle class="cls-3" cx="195.19" cy="127.38" r="42.38"/><path class="cls-1" d="M320,66"/><path class="cls-4" d="M99.32,159.18s3.29-8,1.65-14.72-3-11-3-11L109.85,109l5.93-3,19.1,6.36-2,4.68a73,73,0,0,1-1.32,19.41c-1.65,7.11-3,10.71-6.26,12.72a16.94,16.94,0,0,1-5.27,2.34l.66,8.7,2.63,14.72-18.11,7.7-9.55-13.39Z"/><path class="cls-5" d="M102.09,139.62a1.85,1.85,0,0,1-2.25.45c-3-1.54-10.29-6.94-9.25-22.88,1.32-20.08,25-23.76,32.6-19.74s9.55,6.69,9.55,6.69v-7s4.61.33,4.61,3.68-1,4-1,4,1.32,1.67,4-1c.33.33,1.32,8.7-3.62,11.38s-18.77,2-22.39-2c0,0-1.65,10.37-3.29,13.05,0,0-3.1-3.86-5.6-1-2.26,2.58-3.31,7.62-.25,8.38a1,1,0,0,1,.55,1.6C104.6,136.57,103.07,138.47,102.09,139.62Z"/><path class="cls-6" d="M120.56,160.69s12.51,3,16.79,5.35,7.24,15.73,7.24,15.73l3.62,10.37H73.14s3.62-20.08,8.23-24.76,17.78-6.69,17.78-6.69A10.66,10.66,0,0,0,109.69,166C117.26,165.37,120.56,160.69,120.56,160.69Z"/><path class="cls-7" d="M120.23,151.32S113,152,108.7,148s-4.28-3.68-4.28-3.68,6.59,12,15.81,9.37Z"/><path class="cls-6" d="M145,148.42"/><path class="cls-8" d="M146.3,136.75a2.17,2.17,0,0,0-4-.57,2.16,2.16,0,0,0-1.41-.52,2.23,2.23,0,0,0-.81,4.28,2.18,2.18,0,0,0,4.19.75,2.15,2.15,0,0,0,1,.24,2.23,2.23,0,0,0,1-4.19Z"/><path class="cls-8" d="M144.26,145.38a2.48,2.48,0,0,0-4.55-.65,2.46,2.46,0,0,0-1.61-.6,2.55,2.55,0,0,0-.93,4.89,2.49,2.49,0,0,0,4.79.86,2.45,2.45,0,0,0,1.13.28,2.55,2.55,0,0,0,1.16-4.79Z"/><path class="cls-1" d="M141.82,139.1a.62.62,0,0,1-.79.4.64.64,0,0,1-.39-.8.62.62,0,0,1,.79-.4A.64.64,0,0,1,141.82,139.1Z"/><path class="cls-2" d="M141.23,138.26a.63.63,0,0,0-.59.43.64.64,0,0,0,.39.8.62.62,0,0,0,.2,0,.63.63,0,0,0,.59-.43.64.64,0,0,0-.39-.8.61.61,0,0,0-.2,0Z"/><path class="cls-1" d="M146.19,140.37a.62.62,0,0,1-.79.4.64.64,0,0,1-.39-.8.62.62,0,0,1,.79-.4A.64.64,0,0,1,146.19,140.37Z"/><path class="cls-2" d="M145.6,139.53a.63.63,0,0,0-.59.43.64.64,0,0,0,.39.8.61.61,0,0,0,.2,0,.63.63,0,0,0,.59-.43.64.64,0,0,0-.39-.8.61.61,0,0,0-.2,0Z"/><path class="cls-1" d="M139.95,148a.62.62,0,0,1-.79.4.64.64,0,0,1-.39-.8.62.62,0,0,1,.79-.4A.64.64,0,0,1,139.95,148Z"/><path class="cls-2" d="M139.35,147.15a.63.63,0,0,0-.59.43.64.64,0,0,0,.39.8.62.62,0,0,0,.2,0,.63.63,0,0,0,.59-.43.64.64,0,0,0-.39-.8.61.61,0,0,0-.2,0Z"/><path class="cls-1" d="M145.09,148.94a.65.65,0,0,1-.83.42.67.67,0,0,1-.41-.84.65.65,0,0,1,.83-.42A.67.67,0,0,1,145.09,148.94Z"/><path class="cls-2" d="M144.47,148.06a.66.66,0,0,0-.62.45.67.67,0,0,0,.41.84.65.65,0,0,0,.21,0,.66.66,0,0,0,.62-.45.67.67,0,0,0-.41-.84.65.65,0,0,0-.21,0Z"/><ellipse class="cls-1" cx="140.29" cy="145.56" rx="0.32" ry="0.31" transform="translate(-42.9 231.07) rotate(-71.08)"/><path class="cls-2" d="M140.29,145.24a.31.31,0,0,0-.3.22.32.32,0,0,0,.2.4l.1,0a.31.31,0,0,0,.3-.22.32.32,0,0,0-.2-.4l-.1,0Z"/><path class="cls-1" d="M143.69,146.08a.62.62,0,0,1-.79.4.64.64,0,0,1-.39-.8.62.62,0,0,1,.79-.4A.64.64,0,0,1,143.69,146.08Z"/><path class="cls-2" d="M143.1,145.24a.63.63,0,0,0-.59.43.64.64,0,0,0,.39.8.61.61,0,0,0,.2,0,.63.63,0,0,0,.59-.43.64.64,0,0,0-.39-.8.61.61,0,0,0-.2,0Z"/><ellipse class="cls-1" cx="141.23" cy="149.69" rx="0.4" ry="0.39" transform="translate(-46.17 234.74) rotate(-71.08)"/><path class="cls-2" d="M141.23,149.29a.39.39,0,0,0-.37.27.4.4,0,0,0,.25.51l.13,0a.39.39,0,0,0,.37-.27.4.4,0,0,0-.25-.51l-.13,0Z"/><circle class="cls-1" cx="143.85" cy="149.31" r="0.2" transform="matrix(0.32, -0.95, 0.95, 0.32, -44.04, 236.97)"/><path class="cls-2" d="M143.85,149.11a.2.2,0,0,0-.19.14.2.2,0,0,0,.12.25h.06a.2.2,0,0,0,.19-.14.2.2,0,0,0-.12-.25Z"/><path class="cls-6" d="M202.64,135.9"/><path class="cls-8" d="M217.2,114.56A14.84,14.84,0,0,0,190,110.69a14.74,14.74,0,0,0-9.62-3.57,15.22,15.22,0,0,0-5.57,29.28,14.89,14.89,0,0,0,28.67,5.13,14.67,14.67,0,0,0,6.79,1.67,15.23,15.23,0,0,0,6.94-28.63Z"/><path class="cls-1" d="M191.38,130.17a3.72,3.72,0,0,1-4.74,2.38,3.81,3.81,0,0,1-2.35-4.81,3.72,3.72,0,0,1,4.74-2.38A3.81,3.81,0,0,1,191.38,130.17Z"/><path class="cls-2" d="M187.84,125.15a3.74,3.74,0,0,0-3.54,2.58,3.81,3.81,0,0,0,2.35,4.81,3.68,3.68,0,0,0,1.19.2,3.74,3.74,0,0,0,3.54-2.58,3.81,3.81,0,0,0-2.35-4.81,3.68,3.68,0,0,0-1.19-.2Z"/><path class="cls-1" d="M176.53,123.86a1.86,1.86,0,0,1-2.37,1.19,1.91,1.91,0,0,1-1.17-2.41,1.86,1.86,0,0,1,2.37-1.19A1.91,1.91,0,0,1,176.53,123.86Z"/><path class="cls-2" d="M174.76,121.36a1.87,1.87,0,0,0-1.77,1.29,1.91,1.91,0,0,0,1.17,2.41,1.84,1.84,0,0,0,.6.1,1.87,1.87,0,0,0,1.77-1.29,1.91,1.91,0,0,0-1.17-2.41,1.84,1.84,0,0,0-.6-.1Z"/><path class="cls-1" d="M195.21,116.27a1.86,1.86,0,0,1-2.37,1.19,1.91,1.91,0,0,1-1.17-2.41,1.86,1.86,0,0,1,2.37-1.19A1.91,1.91,0,0,1,195.21,116.27Z"/><path class="cls-2" d="M193.44,113.76a1.87,1.87,0,0,0-1.77,1.29,1.91,1.91,0,0,0,1.17,2.41,1.84,1.84,0,0,0,.6.1,1.87,1.87,0,0,0,1.77-1.29,1.91,1.91,0,0,0-1.17-2.41,1.84,1.84,0,0,0-.6-.1Z"/><path class="cls-1" d="M213.8,118.77a3.72,3.72,0,0,1-4.74,2.38,3.81,3.81,0,0,1-2.35-4.81,3.72,3.72,0,0,1,4.74-2.38A3.81,3.81,0,0,1,213.8,118.77Z"/><path class="cls-2" d="M210.26,113.76a3.74,3.74,0,0,0-3.54,2.58,3.81,3.81,0,0,0,2.35,4.81,3.68,3.68,0,0,0,1.19.2,3.74,3.74,0,0,0,3.54-2.58,3.81,3.81,0,0,0-2.35-4.81,3.68,3.68,0,0,0-1.19-.2Z"/><path class="cls-1" d="M201.27,141.11a2.34,2.34,0,0,1-3,1.5,2.39,2.39,0,0,1-1.47-3,2.34,2.34,0,0,1,3-1.5A2.39,2.39,0,0,1,201.27,141.11Z"/><path class="cls-2" d="M199,138a2.35,2.35,0,0,0-2.22,1.62,2.39,2.39,0,0,0,1.47,3,2.31,2.31,0,0,0,.75.13,2.35,2.35,0,0,0,2.22-1.62,2.39,2.39,0,0,0-1.47-3A2.31,2.31,0,0,0,199,138Z"/><path class="cls-1" d="M198.3,140.29a.9.9,0,0,1-1.15.58.92.92,0,0,1-.57-1.17.9.9,0,0,1,1.15-.58A.92.92,0,0,1,198.3,140.29Z"/><path class="cls-2" d="M197.44,139.08a.91.91,0,0,0-.86.63.92.92,0,0,0,.57,1.17.89.89,0,0,0,.29,0,.91.91,0,0,0,.86-.63.92.92,0,0,0-.57-1.17.89.89,0,0,0-.29,0Z"/><circle class="cls-1" cx="144.04" cy="136.67" r="0.31" transform="translate(-46.89 82.14) rotate(-27.56)"/><path class="cls-2" d="M144,136.36a.31.31,0,0,0-.14,0,.32.32,0,0,0-.14.43.31.31,0,0,0,.28.17.31.31,0,0,0,.14,0,.32.32,0,0,0,.14-.43.31.31,0,0,0-.28-.17Z"/><circle class="cls-1" cx="144.35" cy="138.26" r="0.27" transform="translate(-47.59 82.47) rotate(-27.56)"/><path class="cls-2" d="M144.35,138a.27.27,0,0,0-.12,0,.28.28,0,0,0-.12.37.27.27,0,0,0,.24.15.27.27,0,0,0,.12,0,.28.28,0,0,0,.12-.37.27.27,0,0,0-.24-.15Z"/><circle class="cls-1" cx="142.42" cy="137.81" r="0.14" transform="translate(-47.6 81.52) rotate(-27.56)"/><path class="cls-2" d="M142.42,137.67l-.06,0a.14.14,0,0,0-.06.18.13.13,0,0,0,.12.07l.06,0a.14.14,0,0,0,.06-.18.13.13,0,0,0-.12-.07Z"/><line class="cls-9" x1="209.97" y1="164.01" x2="241.76" y2="227.58"/><path class="cls-10" d="M155.7,245.87H192.3a3.25,3.25,0,0,0,2.83-4.86l-18.3-32.36a3.25,3.25,0,0,0-5.67,0L152.86,241A3.25,3.25,0,0,0,155.7,245.87Z"/><polygon class="cls-1" points="172.95 232.22 175.57 232.22 176.62 219.43 171.38 219.43 172.95 232.22"/><circle class="cls-1" cx="174.1" cy="237.37" r="2.1" transform="translate(-95.36 118.85) rotate(-30)"/></g></g></svg>